<?xml version="1.0" encoding="iso-8859-1"?>
<!-- Uploaded to: SVG Repo, www.svgrepo.com, Generator: SVG Repo Mixer Tools -->
<svg height="800px" width="800px" version="1.1" id="Layer_1" xmlns="http://www.w3.org/2000/svg" xmlns:xlink="http://www.w3.org/1999/xlink" 
	 viewBox="0 0 491.52 491.52" xml:space="preserve">
<path style="fill:#FCD462;" d="M229.644,32.23c-122.38,0-221.587,99.207-221.587,221.587c0,91.525,55.497,170.074,134.668,203.872
	l86.919-203.872V32.23z"/>
<path style="fill:#F6C358;" d="M217.624,32.565v221.252l-84.909,199.159c3.313,1.615,6.609,3.26,10.011,4.712l86.919-203.872V32.23
	C225.61,32.23,221.605,32.353,217.624,32.565z"/>
<path style="fill:#3EA69B;" d="M466.199,221.586h17.264C483.463,99.207,384.254,0,261.876,0v14.226
	C373.741,18.655,463.373,109.316,466.199,221.586z"/>
<path style="fill:#2D93BA;" d="M237.197,488.404c-27.63,0-54.004-5.318-78.23-14.892l-0.125,0.293
	c26.69,11.394,56.064,17.715,86.919,17.715c65.282,0,123.958-28.241,164.51-73.16l-8.525-7.691
	C362.675,458.134,303.473,488.404,237.197,488.404z"/>
<path style="fill:#D15241;" d="M458.141,245.76c0.046,1.815,0.138,3.619,0.138,5.447c0,51.375-18.191,98.497-48.476,135.289
	l8.526,7.692c35.468-39.288,57.076-91.331,57.076-148.427H458.141z"/>
<path style="fill:#44C4A1;" d="M466.199,221.586c-2.826-112.27-92.458-202.932-204.323-207.36v207.36L466.199,221.586
	L466.199,221.586z"/>
<path style="fill:#27A2DB;" d="M401.745,410.669L245.76,269.933l-86.794,203.579c24.226,9.574,50.6,14.892,78.23,14.892
	C303.473,488.404,362.675,458.134,401.745,410.669z"/>
<path style="fill:#E56353;" d="M409.803,386.496c30.286-36.792,48.476-83.914,48.476-135.289c0-1.828-0.092-3.632-0.138-5.447
	H253.817L409.803,386.496z"/>
</svg>